<?xml version="1.0" encoding="UTF-8" standalone="no"?>
<svg width="30px" height="8px" viewBox="0 0 30 8" version="1.1" xmlns="http://www.w3.org/2000/svg" xmlns:xlink="http://www.w3.org/1999/xlink">
    <!-- Generator: Sketch 47.1 (45422) - http://www.bohemiancoding.com/sketch -->
    <title>Shape</title>
    <desc>Created with Sketch.</desc>
    <defs></defs>
    <g id="Page-1" stroke="none" stroke-width="1" fill="none" fill-rule="evenodd">
        <g id="Artboard" transform="translate(-10.000000, -29.000000)" fill-rule="nonzero" fill="#FFFFFF">
            <g id="ellipsis" transform="translate(10.000000, 29.000000)">
                <path d="M3.75,0 C1.6875,0 0,1.6875 0,3.75 C0,5.8125 1.6875,7.5 3.75,7.5 C5.8125,7.5 7.5,5.8125 7.5,3.75 C7.5,1.6875 5.8125,0 3.75,0 Z M26.25,0 C24.1875,0 22.5,1.6875 22.5,3.75 C22.5,5.8125 24.1875,7.5 26.25,7.5 C28.3125,7.5 30,5.8125 30,3.75 C30,1.6875 28.3125,0 26.25,0 Z M15,0 C12.9375,0 11.25,1.6875 11.25,3.75 C11.25,5.8125 12.9375,7.5 15,7.5 C17.0625,7.5 18.75,5.8125 18.75,3.75 C18.75,1.6875 17.0625,0 15,0 Z" id="Shape"></path>
            </g>
        </g>
    </g>
</svg>